<svg width="18" height="18" viewBox="0 0 18 18" fill="none" xmlns="http://www.w3.org/2000/svg">
<path d="M13.0052 16.4324C12.8023 16.4324 12.5981 16.3834 12.41 16.2847L9.01729 14.5013L5.59047 16.2841C5.37963 16.3961 5.14145 16.4464 4.90329 16.4292C4.66514 16.412 4.43668 16.3279 4.24419 16.1867C4.05043 16.0474 3.89995 15.8562 3.81003 15.6352C3.7201 15.4142 3.69439 15.1723 3.73585 14.9374L4.38385 11.162L1.6286 8.45541C1.45683 8.28956 1.33536 8.07863 1.27815 7.84687C1.22095 7.61511 1.23033 7.37192 1.30522 7.14525C1.37831 6.91822 1.5139 6.71635 1.69645 6.56276C1.879 6.40916 2.10114 6.31005 2.33743 6.27678L6.12985 5.72591L7.85412 2.27061C8.07136 1.83141 8.51019 1.55908 9.00054 1.55908C9.49088 1.55908 9.92971 1.83141 10.1469 2.27061L11.8433 5.70544L15.6636 6.27678C15.8999 6.31005 16.1221 6.40916 16.3046 6.56276C16.4872 6.71635 16.6228 6.91822 16.6958 7.14525C16.7704 7.37195 16.7797 7.61507 16.7225 7.84676C16.6653 8.07846 16.544 8.28939 16.3725 8.45541L13.6278 11.1291L14.2652 14.938C14.3063 15.1729 14.2804 15.4147 14.1905 15.6356C14.1006 15.8565 13.9504 16.0477 13.7569 16.1873C13.5383 16.346 13.2753 16.4317 13.0052 16.4324ZM2.49447 7.56709L5.23853 10.2408C5.53957 10.5348 5.67736 10.9566 5.6066 11.371L4.95922 15.147L5.30185 15.7351L5.0126 15.1861L8.40467 13.4033C8.58815 13.3069 8.79228 13.2565 8.99953 13.2564C9.20678 13.2563 9.41096 13.3065 9.59454 13.4026L12.9872 15.1861L13.0406 15.147L12.3926 11.3716C12.3578 11.1675 12.373 10.9579 12.437 10.761C12.501 10.564 12.6119 10.3855 12.7601 10.2408L15.5047 7.56709L15.4843 7.50319L11.6918 6.95233C11.4868 6.92232 11.292 6.84303 11.1244 6.72126C10.9567 6.59949 10.8211 6.43888 10.7292 6.2532L9.03281 2.81837C9.02785 2.80845 9.02226 2.79852 8.99929 2.79852L7.26943 6.2532C7.17781 6.43885 7.04244 6.59947 6.87496 6.72125C6.70749 6.84304 6.51291 6.92233 6.30798 6.95233L2.51433 7.50319L2.0606 8.01063L2.49447 7.56709Z" fill="#FFB017"/>
</svg>
