<svg width="18" height="19" viewBox="0 0 18 19" fill="none" xmlns="http://www.w3.org/2000/svg">
<g clip-path="url(#clip0_53_16587)">
<path d="M13.1701 16.7502C13.0501 16.7506 12.9318 16.7223 12.8251 16.6677L9.00007 14.6652L5.17507 16.6677C5.05086 16.733 4.91082 16.7621 4.77087 16.7518C4.63092 16.7415 4.49667 16.6921 4.38339 16.6093C4.2701 16.5265 4.18232 16.4135 4.13003 16.2833C4.07773 16.1531 4.06302 16.0108 4.08757 15.8727L4.83757 11.6502L1.74757 8.65015C1.65116 8.55395 1.58277 8.4333 1.54974 8.30117C1.5167 8.16904 1.52027 8.03041 1.56007 7.90015C1.60354 7.76686 1.6835 7.64842 1.79088 7.55827C1.89826 7.46812 2.02876 7.40988 2.16757 7.39015L6.44257 6.76765L8.32507 2.92015C8.38648 2.79335 8.48237 2.68641 8.60175 2.61158C8.72113 2.53676 8.85917 2.49707 9.00007 2.49707C9.14096 2.49707 9.279 2.53676 9.39838 2.61158C9.51776 2.68641 9.61365 2.79335 9.67507 2.92015L11.5801 6.76015L15.8551 7.38265C15.9939 7.40238 16.1244 7.46063 16.2318 7.55077C16.3391 7.64092 16.4191 7.75936 16.4626 7.89265C16.5024 8.02291 16.5059 8.16154 16.4729 8.29367C16.4399 8.4258 16.3715 8.54645 16.2751 8.64265L13.1851 11.6427L13.9351 15.8652C13.9618 16.0058 13.9478 16.1511 13.8947 16.284C13.8415 16.4169 13.7514 16.5318 13.6351 16.6152C13.4993 16.7103 13.3357 16.7578 13.1701 16.7502Z" fill="#FFB017"/>
</g>
<path d="M13.0052 17.1003C12.8023 17.1003 12.5981 17.0513 12.41 16.9527L9.01729 15.1692L5.59047 16.9521C5.37963 17.0641 5.14145 17.1144 4.90329 17.0972C4.66514 17.08 4.43668 16.9959 4.24419 16.8547C4.05043 16.7153 3.89995 16.5242 3.81003 16.3032C3.7201 16.0822 3.69439 15.8403 3.73585 15.6053L4.38385 11.8299L1.6286 9.12338C1.45683 8.95753 1.33536 8.7466 1.27815 8.51484C1.22095 8.28308 1.23033 8.03989 1.30522 7.81322C1.37831 7.58619 1.5139 7.38432 1.69645 7.23073C1.879 7.07713 2.10114 6.97802 2.33743 6.94475L6.12985 6.39388L7.85412 2.93858C8.07136 2.49938 8.51019 2.22705 9.00054 2.22705C9.49088 2.22705 9.92971 2.49938 10.1469 2.93858L11.8433 6.37341L15.6636 6.94475C15.8999 6.97802 16.1221 7.07713 16.3046 7.23073C16.4872 7.38432 16.6228 7.58619 16.6958 7.81322C16.7704 8.03992 16.7797 8.28303 16.7225 8.51473C16.6653 8.74643 16.544 8.95736 16.3725 9.12338L13.6278 11.7971L14.2652 15.6059C14.3063 15.8409 14.2804 16.0826 14.1905 16.3036C14.1006 16.5245 13.9504 16.7157 13.7569 16.8553C13.5383 17.0139 13.2753 17.0997 13.0052 17.1003ZM2.49447 8.23505L5.23853 10.9087C5.53957 11.2028 5.67736 11.6246 5.6066 12.039L4.95922 15.815L5.30185 16.4031L5.0126 15.8541L8.40467 14.0712C8.58815 13.9749 8.79228 13.9245 8.99953 13.9244C9.20678 13.9243 9.41096 13.9745 9.59454 14.0706L12.9872 15.8541L13.0406 15.815L12.3926 12.0396C12.3578 11.8355 12.373 11.6259 12.437 11.429C12.501 11.232 12.6119 11.0535 12.7601 10.9087L15.5047 8.23505L15.4843 8.17116L11.6918 7.6203C11.4868 7.59029 11.292 7.511 11.1244 7.38923C10.9567 7.26746 10.8211 7.10684 10.7292 6.92117L9.03281 3.48634C9.02785 3.47642 9.02226 3.46649 8.99929 3.46649L7.26943 6.92117C7.17781 7.10682 7.04244 7.26744 6.87496 7.38922C6.70749 7.511 6.51291 7.5903 6.30798 7.6203L2.51433 8.17116L2.0606 8.6786L2.49447 8.23505Z" fill="#FFB017"/>
<defs>
<clipPath id="clip0_53_16587">
<rect width="9" height="18" fill="white" transform="translate(0 1)"/>
</clipPath>
</defs>
</svg>
