<svg width="18" height="19" viewBox="0 0 18 19" fill="none" xmlns="http://www.w3.org/2000/svg">
<g clip-path="url(#clip0_31_1017)">
<path d="M13.1701 16.3424C13.0501 16.3429 12.9318 16.3146 12.8251 16.2599L9.00007 14.2574L5.17507 16.2599C5.05086 16.3252 4.91082 16.3544 4.77087 16.3441C4.63092 16.3338 4.49667 16.2844 4.38339 16.2016C4.2701 16.1188 4.18232 16.0058 4.13003 15.8756C4.07773 15.7454 4.06302 15.6031 4.08757 15.4649L4.83757 11.2424L1.74757 8.24244C1.65116 8.14623 1.58277 8.02559 1.54974 7.89346C1.5167 7.76133 1.52027 7.62269 1.56007 7.49244C1.60354 7.35914 1.6835 7.2407 1.79088 7.15056C1.89826 7.06041 2.02876 7.00217 2.16757 6.98244L6.44257 6.35994L8.32507 2.51244C8.38648 2.38563 8.48237 2.27869 8.60175 2.20387C8.72113 2.12904 8.85917 2.08936 9.00007 2.08936C9.14096 2.08936 9.279 2.12904 9.39838 2.20387C9.51776 2.27869 9.61365 2.38563 9.67507 2.51244L11.5801 6.35244L15.8551 6.97494C15.9939 6.99467 16.1244 7.05291 16.2318 7.14306C16.3391 7.2332 16.4191 7.35164 16.4626 7.48494C16.5024 7.61519 16.5059 7.75383 16.4729 7.88596C16.4399 8.01809 16.3715 8.13873 16.2751 8.23494L13.1851 11.2349L13.9351 15.4574C13.9618 15.598 13.9478 15.7434 13.8947 15.8763C13.8415 16.0092 13.7514 16.1241 13.6351 16.2074C13.4993 16.3026 13.3357 16.3501 13.1701 16.3424Z" fill="#FFB017"/>
</g>
<defs>
<clipPath id="clip0_31_1017">
<rect width="18" height="18" fill="white" transform="translate(0 0.592285)"/>
</clipPath>
</defs>
</svg>
